<svg id="layer_4" enable-background="new 0 0 64 64" height="512" viewBox="0 0 64 64" width="512" xmlns="http://www.w3.org/2000/svg"><g><g><path d="m25 2c10.493 0 19 8.507 19 19h-4l7 7 7-7h-4c0-10.493-8.507-19-19-19" fill="#669e4f"/></g><g><path d="m39 62c-10.493 0-19-8.507-19-19h4l-7-7-7 7h4c0 10.493 8.507 19 19 19" fill="#669e4f"/></g><g><path d="m49 47c.613 1.226 1.866 2 3.236 2h.146c1.998 0 3.618 1.62 3.618 3.618v4.382h-18v-4.382c0-1.998 1.62-3.618 3.618-3.618h.146c1.37 0 2.623-.774 3.236-2" fill="#e39854"/></g><g><path d="m42.893 48.812c.901-.297 1.669-.936 2.107-1.812h4c.446.892 1.232 1.54 2.154 1.829l-.154.171-.586.586c-.905.905-2.133 1.414-3.414 1.414s-2.509-.509-3.414-1.414l-.586-.586z" fill="#efbe9a"/></g><g><path d="m17 17c-2.761 0-5-2.239-5-5v-2c0-2.761 2.239-5 5-5 2.761 0 5 2.239 5 5v2c0 2.761-2.239 5-5 5z" fill="#efbe9a"/></g><g><path d="m47 47c-2.761 0-5-2.239-5-5v-2c0-2.761 2.239-5 5-5 2.761 0 5 2.239 5 5v2c0 2.761-2.239 5-5 5z" fill="#efbe9a"/></g><g><path d="m19 17c.613 1.226 1.866 2 3.236 2h.146c1.998 0 3.618 1.62 3.618 3.618v4.382h-18v-4.382c0-1.998 1.62-3.618 3.618-3.618h.146c1.37 0 2.623-.774 3.236-2" fill="#e39854"/></g><g><path d="m12.893 18.812c.901-.297 1.669-.936 2.107-1.812h4c.446.892 1.232 1.54 2.154 1.829l-.154.171-.586.586c-.905.905-2.133 1.414-3.414 1.414s-2.509-.509-3.414-1.414l-.586-.586z" fill="#efbe9a"/></g><g><path d="m17 18c-3.309 0-6-2.691-6-6v-2c0-3.309 2.691-6 6-6s6 2.691 6 6v2c0 3.309-2.691 6-6 6zm0-12c-2.206 0-4 1.794-4 4v2c0 2.206 1.794 4 4 4s4-1.794 4-4v-2c0-2.206-1.794-4-4-4z"/></g><g><path d="m26 28h-18c-.553 0-1-.448-1-1v-4.382c0-2.546 2.071-4.618 4.618-4.618h.146c.998 0 1.896-.555 2.342-1.447l1.789.895c-.789 1.574-2.372 2.552-4.131 2.552h-.146c-1.443 0-2.618 1.174-2.618 2.618v3.382h16v-3.382c0-1.444-1.175-2.618-2.618-2.618h-.146c-1.76 0-3.343-.978-4.131-2.553l1.789-.895c.447.893 1.344 1.448 2.342 1.448h.146c2.547 0 4.618 2.072 4.618 4.618v4.382c0 .552-.447 1-1 1z"/></g><g><path d="m21 24h2v3h-2z"/></g><g><path d="m11 24h2v3h-2z"/></g><g><path d="m17 22c-1.534 0-3.036-.622-4.121-1.707l-.586-.586 1.414-1.414.586.586c.713.712 1.699 1.121 2.707 1.121s1.994-.409 2.707-1.121l.586-.586 1.414 1.414-.586.586c-1.085 1.085-2.587 1.707-4.121 1.707z"/></g><g><path d="m47 48c-3.309 0-6-2.691-6-6v-2c0-3.309 2.691-6 6-6s6 2.691 6 6v2c0 3.309-2.691 6-6 6zm0-12c-2.206 0-4 1.794-4 4v2c0 2.206 1.794 4 4 4s4-1.794 4-4v-2c0-2.206-1.794-4-4-4z"/></g><g><path d="m56 58h-18c-.553 0-1-.448-1-1v-4.382c0-2.546 2.071-4.618 4.618-4.618h.146c.998 0 1.896-.555 2.342-1.447l1.789.895c-.789 1.574-2.372 2.552-4.131 2.552h-.146c-1.443 0-2.618 1.174-2.618 2.618v3.382h16v-3.382c0-1.444-1.175-2.618-2.618-2.618h-.146c-1.76 0-3.343-.978-4.131-2.553l1.789-.895c.447.893 1.344 1.448 2.342 1.448h.146c2.547 0 4.618 2.072 4.618 4.618v4.382c0 .552-.447 1-1 1z"/></g><g><path d="m51 54h2v3h-2z"/></g><g><path d="m41 54h2v3h-2z"/></g><g><path d="m47 52c-1.534 0-3.036-.622-4.121-1.707l-.586-.586c-.062-.063-.117-.134-.161-.211l-.107-.188 1.683-1.015.034.034.02-.011.041.072.491.491c.712.712 1.698 1.121 2.706 1.121s1.994-.409 2.707-1.121l.705-.72 1.484 1.34-.775.794c-1.085 1.085-2.587 1.707-4.121 1.707z"/></g><g><path d="m47 63h-14c-10.692 0-19.453-8.435-19.976-19h-3.024c-.404 0-.77-.244-.924-.617-.155-.374-.069-.804.217-1.09l7-7c.391-.391 1.023-.391 1.414 0l7 7c.286.286.372.716.217 1.09-.154.373-.52.617-.924.617h-2.973c.521 9.462 8.383 17 17.973 17h8c3.862 0 7.458-1.539 10.126-4.333 2.667-2.792 4.037-6.46 3.858-10.33-.329-7.142-6.181-12.994-13.322-13.322-3.884-.181-7.539 1.192-10.33 3.859-2.794 2.668-4.332 6.264-4.332 10.126v10h-2v-10c0-4.413 1.758-8.523 4.95-11.572 3.191-3.048 7.392-4.617 11.804-4.411 8.164.376 14.853 7.065 15.229 15.229.203 4.42-1.362 8.612-4.41 11.803-3.05 3.193-7.159 4.951-11.573 4.951zm-34.586-21h1.586c.553 0 1 .448 1 1 0 8.792 6.336 16.132 14.682 17.693-6.348-3.356-10.682-10.028-10.682-17.693 0-.552.447-1 1-1h1.586l-4.586-4.586z"/></g><g><path d="m17.009 33c-.254 0-.508-.006-.763-.018-8.164-.375-14.852-7.064-15.228-15.228-.203-4.42 1.362-8.612 4.41-11.803 3.049-3.193 7.158-4.951 11.572-4.951h14c10.692 0 19.453 8.435 19.976 19h3.024c.404 0 .77.244.924.617.155.374.069.804-.217 1.09l-7 7c-.391.391-1.023.391-1.414 0l-7-7c-.286-.286-.372-.716-.217-1.09.154-.373.52-.617.924-.617h2.973c-.521-9.462-8.383-17-17.973-17h-8c-3.862 0-7.458 1.539-10.126 4.333-2.667 2.792-4.037 6.46-3.858 10.33.329 7.142 6.181 12.994 13.322 13.322 3.87.173 7.538-1.193 10.33-3.859 2.794-2.668 4.332-6.264 4.332-10.126v-10h2v10c0 4.413-1.758 8.523-4.95 11.572-3.007 2.872-6.903 4.428-11.041 4.428zm25.405-11 4.586 4.586 4.586-4.586h-1.586c-.553 0-1-.448-1-1 0-8.792-6.336-16.132-14.682-17.693 6.348 3.356 10.682 10.028 10.682 17.693 0 .552-.447 1-1 1z"/></g></g></svg>